:SAMPLES-PER-SECOND 30
:FULLY-SPECIFIED
:DEGREES
19
root  -65.4454 36.3733 -3.00636 -52.3428 80.6685 -60.9874
RightUpLeg  -2.98495 16.1811 14.7213
RightLeg  26.2862 2.64399 -3.73968
RightFoot  -31.9442 -0.547953 -3.36817
RightToes  -2.91039e-010 -3.18055e-015 8.94531e-016
Spine  3.60322 3.3789 17.7176
Spine1  18.9202 6.00081 -4.68352
HEad  -21.8102 0.246787 -1.52495
LeftShoulder1  0 0 -2.47967e-037
LeftArm  36.1808 61.3115 -78.4849
LeftForeArm  -47.1312 -24.8883 14.4887
LeftHand  0.576211 4.94966 4.44468
RightShoulder  -2.48481e-017 0 -8.08114e-019
RightArm  7.50125 3.91545 78.7898
RightForeArm  -38.3462 48.9082 -46.7401
RightHand  1.83757 -13.4401 -8.20677
LeftUpLeg  -44.1591 -3.86655 8.78787
LeftLeg  66.8502 -9.52194 7.05729
LeftFoot  -3.53487 0.508708 -6.01206
LeftToes  -1.92813e-010 7.1836e-011 -1.0882e-011
20
root  -63.0151 35.7499 -2.99658 -44.866 79.9405 -56.1147
RightUpLeg  -0.103729 13.9278 13.8465
RightLeg  23.3324 5.57227 -2.02843
RightFoot  -33.7089 -1.03274 -5.74347
RightToes  -2.91039e-010 -3.18055e-015 8.94531e-016
Spine  4.06891 4.85352 18.8359
Spine1  18.3561 8.18131 -6.68505
HEad  -23.6585 -1.13056 0.0104791
LeftShoulder1  0 0 -2.47967e-037
LeftArm  45.1363 71.4568 -62.045
LeftForeArm  -41.6259 -28.0756 18.1472
LeftHand  0.581656 4.75464 2.79527
RightShoulder  -2.48481e-017 0 -8.08114e-019
RightArm  4.90428 13.289 74.7617
RightForeArm  -43.9621 55.3247 -59.2313
RightHand  1.71073 -13.1437 -6.96837
LeftUpLeg  -53.1367 -2.08534 8.68031
LeftLeg  68.2632 -9.50426 7.88244
LeftFoot  -6.64483 0.233522 -4.29114
LeftToes  -1.92813e-010 7.1836e-011 -1.0882e-011
21
root  -60.211 35.4507 -2.88404 -30.8403 80.5112 -45.4089
RightUpLeg  3.52544 7.15832 10.265
RightLeg  17.1849 13.7107 -0.432029
RightFoot  -32.9016 -1.24466 -7.19309
RightToes  -2.91039e-010 -3.18055e-015 8.94531e-016
Spine  4.34257 6.50456 17.4172
Spine1  15.4647 10.5078 -9.91354
HEad  -22.298 -3.17067 2.97763
LeftShoulder1  0 0 -2.47967e-037
LeftArm  70.8181 76.0651 -27.0891
LeftForeArm  -36.0413 -29.4184 18.9595
LeftHand  0.545326 4.53003 2.79315
RightShoulder  -2.48481e-017 0 -8.08114e-019
RightArm  1.37908 17.5084 71.6392
RightForeArm  -50.2253 58.7959 -70.152
RightHand  1.85155 -13.6538 -7.84984
LeftUpLeg  -60.5082 0.124599 5.97177
LeftLeg  67.2492 -9.60231 7.03406
LeftFoot  -10.8641 0.0677932 -4.52012
LeftToes  -1.92813e-010 7.1836e-011 -1.0882e-011
22
root  -57.1642 35.3613 -2.69087 -9.21071 81.328 -26.263
RightUpLeg  8.2725 2.75593 5.17343
RightLeg  10.2973 20.5556 -0.0315688
RightFoot  -26.9004 -0.48505 -4.08629
RightToes  -2.91039e-010 -3.18055e-015 8.94531e-016
Spine  5.11358 7.43968 13.2727
Spine1  13.0973 12.0942 -13.5627
HEad  -20.3058 -5.54454 5.57301
LeftShoulder1  0 0 -2.47967e-037
LeftArm  87.3468 75.1053 -1.0041
LeftForeArm  -35.5404 -30.0438 19.2366
LeftHand  0.569284 4.79153 3.56444
RightShoulder  -2.48481e-017 0 -8.08114e-019
RightArm  -1.82051 17.1927 71.0473
RightForeArm  -58.9755 61.3516 -85.1143
RightHand  2.22019 -14.2951 -11.4578
LeftUpLeg  -64.0987 2.12617 1.48633
LeftLeg  64.5912 -9.39309 6.3675
LeftFoot  -13.1986 -0.027379 -6.72829
LeftToes  -1.92813e-010 7.1836e-011 -1.0882e-011
23
root  -54.1327 35.4109 -2.4631 11.6768 82.1716 -6.17685
RightUpLeg  11.7568 3.46939 2.00811
RightLeg  9.06549 19.8967 -0.134466
RightFoot  -14.0278 0.0157862 1.43526
RightToes  -2.91039e-010 -3.18055e-015 8.94531e-016
Spine  6.54499 6.73227 7.83949
Spine1  14.2148 12.2905 -15.88
HEad  -20.8048 -7.18221 6.88593
LeftShoulder1  0 0 -2.47967e-037
LeftArm  76.52 74.8532 -4.3942
LeftForeArm  -38.8845 -30.331 19.1733
LeftHand  0.573154 4.86146 3.906
RightShoulder  -2.48481e-017 0 -8.08114e-019
RightArm  -2.40999 12.0931 73.289
RightForeArm  -75.8166 61.9627 -107.037
RightHand  2.18576 -13.7985 -12.4548
LeftUpLeg  -62.0057 3.18543 -2.75026
LeftLeg  59.919 -8.18357 7.15076
LeftFoot  -13.7071 -0.0590818 -6.84433
LeftToes  -1.92813e-010 7.1836e-011 -1.0882e-011
24
root  -51.1261 35.3829 -2.26353 35.2383 83.9535 17.9216
RightUpLeg  8.82468 5.80226 0.857545
RightLeg  23.2276 12.8518 1.71739
RightFoot  -0.0395821 -0.281966 2.45789
RightToes  -2.91039e-010 -3.18055e-015 8.94531e-016
Spine  8.50496 4.67325 1.78001
Spine1  18.5732 10.6371 -15.9372
HEad  -24.3713 -7.1962 7.11756
LeftShoulder1  0 0 -2.47967e-037
LeftArm  41.3955 71.5025 -37.5927
LeftForeArm  -42.2063 -29.5868 18.7047
LeftHand  0.498538 4.43178 3.93256
RightShoulder  -2.48481e-017 0 -8.08114e-019
RightArm  0.680297 1.69717 78.4908
RightForeArm  -85.9153 61.1545 -117.081
RightHand  2.04319 -13.3905 -11.589
LeftUpLeg  -54.8397 2.49127 -5.73266
LeftLeg  54.5964 -7.10231 7.0973
LeftFoot  -15.6563 -0.126812 -4.08059
LeftToes  -1.92813e-010 7.1836e-011 -1.0882e-011
25
root  -48.062 34.9954 -2.13287 89.5397 85.0514 73.089
RightUpLeg  0.187466 0.5874 -0.359616
RightLeg  47.9775 10.3357 0.139196
RightFoot  6.33928 -0.212413 1.22641
RightToes  -2.91039e-010 -3.18055e-015 8.94531e-016
Spine  11.1222 2.09935 -4.36177
Spine1  23.0095 7.01918 -14.1066
HEad  -28.2879 -6.44062 7.06927
LeftShoulder1  0 0 -2.47967e-037
LeftArm  20.5062 56.9452 -61.2335
LeftForeArm  -43.1655 -29.5718 18.6504
LeftHand  0.399016 4.00629 4.78058
RightShoulder  -2.48481e-017 0 -8.08114e-019
RightArm  3.6617 -11.6616 85.5244
RightForeArm  -75.1523 62.4067 -98.8404
RightHand  2.26432 -14.1128 -12.6133
LeftUpLeg  -46.5766 -0.472353 -7.90663
LeftLeg  52.1374 -7.83233 5.25719
LeftFoot  -20.4669 -0.170087 -1.77355
LeftToes  -1.92813e-010 7.1836e-011 -1.0882e-011
26
root  -44.9539 34.5431 -2.01379 135.243 81.0402 119.095
RightUpLeg  -11.9903 -3.42961 -0.701386
RightLeg  75.9703 10.088 -3.36253
RightFoot  5.35922 -0.142421 0.8646
RightToes  -2.91039e-010 -3.18055e-015 8.94531e-016
Spine  14.1855 -0.102147 -9.81566
Spine1  24.7373 2.2721 -11.009
HEad  -29.559 -6.45765 8.06013
LeftShoulder1  0 0 -2.47967e-037
LeftArm  13.1246 37.3112 -69.7881
LeftForeArm  -40.5788 -33.8324 20.5485
LeftHand  0.337204 4.05739 7.09227
RightShoulder  -2.48481e-017 0 -8.08114e-019
RightArm  4.77418 -23.6806 91.2686
RightForeArm  -46.1482 54.2337 -56.1135
RightHand  2.45437 -14.7011 -13.4381
LeftUpLeg  -39.9318 -4.63455 -9.63543
LeftLeg  52.5724 -9.01996 3.65227
LeftFoot  -25.7127 -0.187838 -1.03592
LeftToes  -1.92813e-010 7.1836e-011 -1.0882e-011
27
root  -41.7093 34.295 -1.8298 149.796 75.5598 133.024
RightUpLeg  -26.619 -4.57094 -0.969765
RightLeg  101.633 11.9087 -2.73759
RightFoot  2.08106 0.170337 -1.28057
RightToes  -2.91039e-010 -3.18055e-015 8.94531e-016
Spine  16.8297 -1.44378 -14.8588
Spine1  23.2219 -2.50595 -6.43695
HEad  -28.5304 -6.74766 10.3457
LeftShoulder1  0 0 -2.47967e-037
LeftArm  4.52601 19.4105 -75.2946
LeftForeArm  -36.948 -45.134 26.6664
LeftHand  0.361971 4.48888 9.38048
RightShoulder  -2.48481e-017 0 -8.08114e-019
RightArm  13.6762 -35.0747 92.8647
RightForeArm  -35.2764 35.6999 -31.7996
RightHand  2.12507 -13.8056 -11.5352
LeftUpLeg  -34.4745 -7.65696 -10.4117
LeftLeg  52.763 -9.48401 3.02229
LeftFoot  -30.4446 -0.129509 -0.262081
LeftToes  -1.92813e-010 7.1836e-011 -1.0882e-011
28
root  -38.0048 34.2163 -1.62348 156.572 71.9832 138.429
RightUpLeg  -42.1927 -2.37579 -2.63554
RightLeg  119.448 11.3242 0.558731
RightFoot  -2.00667 0.460302 -4.71829
RightToes  -2.91039e-010 -3.18055e-015 8.94531e-016
Spine  18.2011 -2.17105 -19.7088
Spine1  19.0736 -6.68157 -0.400705
HEad  -27.5424 -5.20432 11.538
LeftShoulder1  0 0 -2.47967e-037
LeftArm  -2.8697 6.08986 -79.9089
LeftForeArm  -43.1749 -61.4136 42.3695
LeftHand  0.577582 5.37427 8.36885
RightShoulder  -2.48481e-017 0 -8.08114e-019
RightArm  36.3913 -49.0041 88.0948
RightForeArm  -39.1857 26.8557 -24.8221
RightHand  1.95397 -13.1342 -10.9935
LeftUpLeg  -27.8329 -8.41758 -9.14702
LeftLeg  49.8814 -11.0473 0.479167
LeftFoot  -34.935 -0.186007 -0.432102
LeftToes  -1.92813e-010 7.1836e-011 -1.0882e-011
29
root  -33.5087 34.4803 -1.63613 166.689 71.3956 147.181
RightUpLeg  -56.5883 0.0232355 -4.11071
RightLeg  124.676 11.1666 0.896201
RightFoot  -5.3978 0.411772 -6.06294
RightToes  -2.91039e-010 -3.18055e-015 8.94531e-016
Spine  17.9104 -3.67967 -20.3199
Spine1  13.4372 -9.68951 5.82929
HEad  -27.0666 -1.34209 9.59847
LeftShoulder1  0 0 -2.47967e-037
LeftArm  -6.7811 -2.3718 -81.0079
LeftForeArm  -75.9311 -72.8253 81.3748
LeftHand  0.878977 6.72906 6.40374
RightShoulder  -2.48481e-017 0 -8.08114e-019
RightArm  59.4852 -64.1955 71.1354
RightForeArm  -39.0033 27.4672 -25.2493
RightHand  1.98277 -12.9713 -12.0201
LeftUpLeg  -18.0991 -8.23084 -4.1861
LeftLeg  41.7037 -15.0383 -3.99954
LeftFoot  -34.1874 -0.947339 -4.60792
LeftToes  -1.92813e-010 7.1836e-011 -1.0882e-011
